<?xml version="1.0" encoding="utf-8"?>
<!-- Generator: Adobe Illustrator 20.1.0, SVG Export Plug-In . SVG Version: 6.00 Build 0)  -->
<svg version="1.1" id="Vrstva_1" xmlns="http://www.w3.org/2000/svg" xmlns:xlink="http://www.w3.org/1999/xlink" x="0px" y="0px"
	 viewBox="0 0 141.7 18.6" enable-background="new 0 0 141.7 18.6" xml:space="preserve">
<g>
	<g>
		<path fill="#091336" d="M34.5,0.3h11.3l-0.6,3.4H38l-0.6,3.6h6.1l-0.6,3.4h-6.1L36,14.9h7.5l-0.6,3.4H31.4L34.5,0.3z"/>
		<path fill="#091336" d="M49.5,0.3h4.1l-3.2,17.9h-4.1L49.5,0.3z"/>
		<path fill="#091336" d="M65.8,0C68.4,0,70,1.1,71,2.4l-2.7,2.5c-0.8-0.8-1.5-1.3-3.1-1.3c-2.8,0-5.1,2.2-5.8,5.8
			c-0.7,3.7,0.7,5.8,4,5.8c0.7,0,1.5-0.2,2-0.6l0.5-3.1l0,0l0.6-3.3h3.6l-1.5,8.3c-1.5,1.1-3.9,2.2-6.4,2.2c-4.8,0-8.1-3.2-7.1-9.2
			C56.4,3.5,61,0,65.8,0z"/>
		<path fill="#091336" d="M75.3,0.3h4.1l-1.2,6.9h6.2l1.2-6.9h4l-3.2,17.9h-4l1.3-7.5h-6.2l-1.3,7.5h-4.1L75.3,0.3z"/>
		<path fill="#091336" d="M96.7,3.8h-5l0.6-3.4h13.9l-0.6,3.4h-4.9l-2.6,14.5h-4L96.7,3.8z"/>
		<path fill="#091336" d="M109.1,0.3h4.1L110,18.3h-4.1L109.1,0.3z"/>
		<path fill="#091336" d="M117.3,0.3h4.1l-2.6,14.5h7.1l-0.6,3.4h-11.1L117.3,0.3z"/>
		<path fill="#091336" d="M130.2,11.9l-3.4-11.6h4.3l0.9,4.1c0.2,1.3,0.5,2.6,0.8,4h0.1c0.7-1.4,1.5-2.6,2.2-4l2.3-4.1h4.2
			l-7.5,11.6l-1.1,6.4h-4L130.2,11.9z"/>
	</g>
	<g>
		<polygon fill="#091336" points="5.9,7.9 1.9,7.9 0,18.3 4.1,18.3 5.3,11.3 11.5,11.3 12.1,7.9 9,7.9 		"/>
		<polygon fill="#091336" points="3.2,0.3 2.6,3.8 6.7,3.8 9.8,3.8 13.9,3.8 14.5,0.3 		"/>
	</g>
	<path fill="#091336" d="M25.9,11.1c2-0.9,3.6-2.5,4.1-5.2c0.8-4.3-2.2-5.6-5.9-5.6h-6.5L17,3.6h4.1h0.7h1.3c2.1,0,3.2,0.6,2.9,2.4
		c-0.3,1.8-1.6,2.7-3.7,2.7h-1.3h-0.7h-4.1l-1.7,9.7h4.1l1.1-6.5h2.2l2.3,6.5h4.5L25.9,11.1z"/>
</g>
</svg>
