<?xml version="1.0" encoding="UTF-8" standalone="no"?>
<!-- Created with Inkscape (http://www.inkscape.org/) -->

<svg
   xmlns:dc="http://purl.org/dc/elements/1.1/"
   xmlns:cc="http://creativecommons.org/ns#"
   xmlns:rdf="http://www.w3.org/1999/02/22-rdf-syntax-ns#"
   xmlns:svg="http://www.w3.org/2000/svg"
   xmlns="http://www.w3.org/2000/svg"
   xmlns:sodipodi="http://sodipodi.sourceforge.net/DTD/sodipodi-0.dtd"
   xmlns:inkscape="http://www.inkscape.org/namespaces/inkscape"
   width="210mm"
   height="60mm"
   viewBox="0 0 210 60"
   version="1.1"
   id="svg8"
   inkscape:version="0.92.3 (2405546, 2018-03-11)"
   sodipodi:docname="nohelogo2.svg"
   inkscape:export-filename="C:\Users\a.dopita\Pictures\nohelogo2.png"
   inkscape:export-xdpi="96"
   inkscape:export-ydpi="96">
  <defs
     id="defs2" />
  <sodipodi:namedview
     id="base"
     pagecolor="#ffffff"
     bordercolor="#666666"
     borderopacity="1.0"
     inkscape:pageopacity="0.0"
     inkscape:pageshadow="2"
     inkscape:zoom="0.35"
     inkscape:cx="-293.41774"
     inkscape:cy="-694.25253"
     inkscape:document-units="mm"
     inkscape:current-layer="text817"
     showgrid="false"
     inkscape:window-width="1920"
     inkscape:window-height="1147"
     inkscape:window-x="-8"
     inkscape:window-y="-8"
     inkscape:window-maximized="1" />
  <metadata
     id="metadata5">
    <rdf:RDF>
      <cc:Work
         rdf:about="">
        <dc:format>image/svg+xml</dc:format>
        <dc:type
           rdf:resource="http://purl.org/dc/dcmitype/StillImage" />
        <dc:title />
      </cc:Work>
    </rdf:RDF>
  </metadata>
  <g
     inkscape:label="Layer 1"
     inkscape:groupmode="layer"
     id="layer1"
     transform="translate(0,-237)">
    <g
       aria-label="NOHE"
       style="font-style:normal;font-variant:normal;font-weight:bold;font-stretch:normal;font-size:10.58333302px;line-height:1.25;font-family:Arial;-inkscape-font-specification:'Arial Bold';letter-spacing:0px;word-spacing:0px;fill:#000000;fill-opacity:1;stroke:none;stroke-width:0.26458332"
       id="text817">
      <path
         inkscape:connector-curvature="0"
         d="m 53.454246,267.63851 c -1.490349,7.12618 -2.479567,10.61081 -3.969914,17.73699 h -6.970118 c 1.727956,-8.27841 2.226049,-9.65475 3.908679,-17.71599 m 1.209381,-6.84972 c 0.790649,-3.78788 1.681524,-8.01008 2.472174,-11.79796 h 6.994922 l 9.847461,24.3334 c 1.271227,-6.08446 2.543447,-12.16871 3.815432,-18.25301 h -6.347651 l 1.26953,-6.08039 H 78.977105 L 71.38687,285.3755 h -6.970117 l -9.822656,-24.43261"
         style="font-style:italic;font-variant:normal;font-weight:bold;font-stretch:normal;font-size:50.79999924px;line-height:1.25;font-family:Arial;-inkscape-font-specification:'Arial Bold Italic';letter-spacing:0px;word-spacing:0px;baseline-shift:baseline;fill:#162e78;fill-opacity:1;stroke:none;stroke-width:2.20000005;stroke-miterlimit:4;stroke-dasharray:none;stroke-opacity:1"
         id="path819-3"
         sodipodi:nodetypes="ccccccccccccccc" />
      <path
         inkscape:connector-curvature="0"
         d="m 81.383159,271.11281 q 0,-3.22461 0.967383,-6.79649 1.265039,-4.7873 3.844727,-8.30957 2.604492,-3.52226 6.548437,-5.55625 3.943945,-2.05879 8.979294,-2.05879 6.74688,0 10.88926,4.192 4.16719,4.19199 4.16719,11.1125 0,5.75468 -2.70372,11.1373 -2.70371,5.38262 -7.34218,8.28477 -4.63848,2.90215 -10.492383,2.90215 -5.084961,0 -8.532812,-2.30684 -3.447852,-2.30684 -4.886524,-5.70508 -1.438672,-3.42305 -1.438672,-6.8957 z m 7.391797,-0.14883 q 0,3.74551 2.282031,6.27559 2.282032,2.53007 6.002735,2.53007 3.026168,0 5.804298,-1.98437 2.80293,-2.00918 4.61367,-6.05234 1.83555,-4.06797 1.83555,-7.9127 0,-4.29121 -2.30684,-6.72207 -2.30683,-2.45566 -5.87871,-2.45566 -5.481835,0 -8.929687,5.10976 -3.423047,5.10977 -3.423047,11.21172 z"
         style="font-style:italic;font-variant:normal;font-weight:bold;font-stretch:normal;font-size:50.79999924px;line-height:1.25;font-family:Arial;-inkscape-font-specification:'Arial Bold Italic';letter-spacing:0px;word-spacing:0px;baseline-shift:baseline;fill:#162e78;fill-opacity:1;stroke:none;stroke-width:2.20000005;stroke-miterlimit:4;stroke-dasharray:none;stroke-opacity:1"
         id="path821-5" />
      <path
         inkscape:connector-curvature="0"
         d="m 143.59332,269.12843 h -14.06426 l -3.39824,16.24707 h -7.49102 l 7.61504,-36.36367 h 7.46621 l -2.92695,14.03945 h 14.06426 l 2.95176,-14.03945 h 7.46621 l -7.59024,36.36367 h -7.49101 z"
         style="font-style:italic;font-variant:normal;font-weight:bold;font-stretch:normal;font-size:50.79999924px;line-height:1.25;font-family:Arial;-inkscape-font-specification:'Arial Bold Italic';letter-spacing:0px;word-spacing:0px;baseline-shift:baseline;fill:#162e78;fill-opacity:1;stroke:none;stroke-width:2.20000005;stroke-miterlimit:4;stroke-dasharray:none;stroke-opacity:1"
         id="path823-0" />
      <path
         inkscape:connector-curvature="0"
         d="m 155.22672,285.3755 7.59023,-36.36367 h 26.9627 l -1.26504,6.07715 h -19.47168 l -1.73633,8.25996 h 18.82676 l -1.26504,6.07715 h -18.82676 l -2.28203,9.87226 h 21.1584 l -1.28985,6.07715 z"
         style="font-style:italic;font-variant:normal;font-weight:bold;font-stretch:normal;font-size:50.79999924px;line-height:1.25;font-family:Arial;-inkscape-font-specification:'Arial Bold Italic';letter-spacing:0px;word-spacing:0px;baseline-shift:baseline;fill:#162e78;fill-opacity:1;stroke:none;stroke-width:2.20000005;stroke-miterlimit:4;stroke-dasharray:none;stroke-opacity:1"
         id="path825-1" />
      <path
         style="fill:#162e78;fill-opacity:1;fill-rule:nonzero;stroke:none;stroke-width:2.20000005;stroke-miterlimit:4;stroke-dasharray:none;stroke-opacity:1"
         d="m 32.88432,248.91734 h 11.626223 l -1.24087,6.03732 H 31.643449 Z"
         id="rect852"
         inkscape:connector-curvature="0"
         sodipodi:nodetypes="ccccc" />
      <path
         style="font-style:normal;font-variant:normal;font-weight:bold;font-stretch:normal;font-size:10.58333302px;line-height:1.25;font-family:Arial;-inkscape-font-specification:'Arial Bold';letter-spacing:0px;word-spacing:0px;fill:#162e78;fill-opacity:1;fill-rule:nonzero;stroke:none;stroke-width:2.20000005;stroke-miterlimit:4;stroke-dasharray:none;stroke-opacity:1"
         d="m 29.317645,267.52588 h 11.626223 l -1.174052,5.47608 H 28.143592 Z"
         id="rect852-9"
         inkscape:connector-curvature="0"
         sodipodi:nodetypes="ccccc" />
      <path
         style="font-style:normal;font-variant:normal;font-weight:bold;font-stretch:normal;font-size:10.58333302px;line-height:1.25;font-family:Arial;-inkscape-font-specification:'Arial Bold';letter-spacing:0px;word-spacing:0px;fill:#162e78;fill-opacity:1;fill-rule:nonzero;stroke:none;stroke-width:2.20000005;stroke-miterlimit:4;stroke-dasharray:none;stroke-opacity:1"
         d="m 19.005787,280.08233 h 19.109769 l -1.140469,5.29317 H 17.865316 Z"
         id="rect852-9-1"
         inkscape:connector-curvature="0"
         sodipodi:nodetypes="ccccc" />
    </g>
  </g>
</svg>
